# xmcd
# 
# Track frame offsets:
#     182
#     83955
#     97827
#     108020
#     118795
#     133652
#     146472
# 
# Disc length: 2114
# 
# Revision: 2
# Processed by: cddbd v1.5.2PL0 Copyright (c) Steve Scherf et al.
# Submitted via: fre:ac v1.0.27
# 
DISCID=53084007
DTITLE=Arlo Guthrie - Alice's Restaurant
DYEAR=1967
DGENRE=Folk
TTITLE0=Alice's Restaurant Massacree
TTITLE1=Chilling of the Evening
TTITLE2=Ring-Around-A-Rosy Rag
TTITLE3=Now and Then
TTITLE4=I'm Going Home
TTITLE5=The Motorcycle Song
TTITLE6=Highway in the Wind
EXTD=
EXTT0=
EXTT1=
EXTT2=
EXTT3=
EXTT4=
EXTT5=
EXTT6=
PLAYORDER=
